<?xml version="1.0" standalone="no"?>
<!DOCTYPE svg PUBLIC "-//W3C//DTD SVG 20010904//EN"
 "http://www.w3.org/TR/2001/REC-SVG-20010904/DTD/svg10.dtd">
<svg version="1.0" xmlns="http://www.w3.org/2000/svg"
 width="239.000000pt" height="239.000000pt" viewBox="0 0 239.000000 239.000000"
 preserveAspectRatio="xMidYMid meet">
<metadata>
Created by potrace 1.14, written by Peter Selinger 2001-2017
</metadata>
<g transform="translate(0.000000,239.000000) scale(0.100000,-0.100000)"
fill="#000000" stroke="none">
<path d="M911 2046 c-73 -26 -131 -118 -125 -196 3 -45 25 -110 36 -110 10 0
11 -4 -7 53 -49 162 71 280 245 242 33 -7 110 -69 110 -89 0 -6 7 -19 15 -29
13 -18 15 -16 33 20 25 48 56 76 107 95 91 34 198 -1 236 -78 24 -51 27 -126
6 -177 -9 -20 -12 -39 -8 -41 15 -10 34 49 37 114 5 121 -59 199 -172 208 -96
8 -167 -24 -215 -98 l-16 -24 -13 24 c-19 37 -70 79 -110 90 -46 13 -117 11
-159 -4z"/>
<path d="M720 1807 c0 -9 -11 -12 -34 -9 l-34 4 3 -41 c1 -23 -1 -41 -6 -41
-5 0 -9 15 -9 33 0 29 -3 33 -22 32 -19 -1 -24 -8 -26 -38 -2 -23 -9 -37 -20
-40 -15 -4 -15 -5 1 -6 13 -1 17 -10 17 -41 0 -36 3 -40 25 -40 23 0 25 4 25
40 0 22 4 40 9 40 5 0 8 -20 6 -45 -1 -25 2 -46 7 -46 28 -4 34 -3 46 11 12
13 13 13 8 -2 -5 -18 11 -35 34 -34 15 1 17 9 19 79 l1 37 60 0 c37 0 60 -4
60 -11 0 -6 24 -61 53 -123 30 -61 60 -126 67 -143 7 -18 28 -54 46 -80 19
-27 34 -56 34 -65 0 -16 11 -18 100 -18 l100 0 36 56 c20 30 44 79 54 107 10
29 34 79 54 111 20 33 37 66 37 73 2 22 4 27 19 61 14 31 17 32 76 32 l61 0
-1 -50 c-2 -65 0 -68 43 -61 4 0 7 26 7 56 -1 30 2 55 7 55 5 0 8 -15 7 -32
-3 -59 -1 -65 23 -64 19 1 23 8 28 51 6 55 9 51 18 -26 0 -6 11 -9 24 -7 18 2
22 9 20 32 -1 16 2 35 8 42 6 8 6 14 0 18 -5 3 -8 17 -6 31 1 16 -4 29 -14 35
-23 12 -41 -1 -37 -26 2 -12 0 -27 -5 -35 -6 -9 -9 2 -9 34 0 43 -2 47 -25 47
-23 0 -25 -4 -25 -42 0 -56 -9 -44 -11 16 -2 44 -4 47 -28 44 -22 -3 -26 -7
-23 -33 5 -63 -2 -72 -62 -71 -30 1 -58 4 -62 9 -10 10 -52 9 -58 -1 -4 -7
-323 -7 -536 -1 -14 0 -48 -2 -77 -5 -29 -3 -55 -2 -58 4 -3 5 -6 30 -7 55 0
40 -3 45 -24 45 -13 0 -24 -6 -24 -13z m-3 -42 c0 -8 -4 -12 -9 -9 -4 3 -8 9
-8 15 0 5 4 9 8 9 5 0 9 -7 9 -15z m3 -40 c0 -8 -2 -15 -4 -15 -2 0 -6 7 -10
15 -3 8 -1 15 4 15 6 0 10 -7 10 -15z m732 -54 c-3 -27 -143 -270 -171 -295
-19 -18 -51 -12 -51 9 0 6 12 25 26 40 25 27 25 28 9 68 -15 36 -76 117 -96
125 -4 2 -19 -8 -34 -22 -23 -22 -25 -27 -11 -32 11 -4 13 -11 8 -22 -16 -33
-14 -100 2 -109 31 -17 27 -72 -5 -73 -6 0 -162 239 -188 288 -27 52 -22 53
256 50 l258 -3 -3 -24z m-735 -11 c1 -11 -2 -20 -5 -20 -4 0 -8 9 -9 20 -1 11
2 20 5 20 4 0 8 -9 9 -20z"/>
<path d="M30 1140 c-19 -19 -22 -29 -22 -65 0 -46 7 -60 57 -115 65 -71 73
-114 23 -133 -23 -8 -48 18 -48 49 0 17 -5 24 -20 24 -15 0 -20 -7 -20 -26 0
-91 106 -130 145 -54 30 58 7 125 -63 183 -28 24 -43 58 -35 85 11 43 61 37
70 -9 4 -20 12 -29 24 -29 21 0 24 16 9 56 -21 54 -82 72 -120 34z"/>
<path d="M196 1153 c-3 -4 -6 -86 -6 -184 0 -142 3 -178 14 -182 23 -9 26 2
26 84 l0 78 40 -2 40 -2 0 -77 c0 -76 6 -93 26 -80 13 8 14 369 2 365 -5 -2
-12 -3 -18 -3 -6 0 -10 -33 -10 -80 l0 -80 -40 0 -40 0 0 79 c0 58 -4 80 -14
84 -8 3 -17 3 -20 0z"/>
<path d="M446 1151 c-3 -5 -18 -69 -32 -143 -14 -73 -29 -152 -33 -176 -5 -23
-5 -44 -2 -47 13 -7 32 12 40 41 7 26 12 29 46 29 35 0 39 -3 47 -32 9 -35 19
-45 34 -35 9 6 -21 194 -53 332 -8 34 -35 52 -47 31z m37 -249 c-7 -2 -21 -2
-31 0 -17 3 -17 7 -3 88 l15 85 16 -85 c12 -67 13 -86 3 -88z"/>
<path d="M590 1150 c-7 -4 -10 -65 -8 -185 3 -161 5 -178 21 -181 15 -2 17 7
17 67 0 61 2 69 19 69 18 0 21 -7 60 -112 7 -19 15 -25 29 -21 19 4 19 7 -6
75 -15 43 -21 73 -15 77 21 13 33 52 33 105 0 75 -27 107 -92 111 -26 1 -52
-1 -58 -5z m99 -54 c24 -29 13 -125 -15 -127 -51 -5 -49 -8 -52 69 l-3 72 29
0 c16 0 35 -6 41 -14z"/>
<path d="M799 1134 c-22 -23 -24 -35 -27 -142 -5 -140 6 -185 48 -202 39 -16
76 -6 97 27 14 22 18 51 19 142 1 64 -3 128 -8 143 -21 60 -87 76 -129 32z
m85 -37 c11 -16 15 -52 15 -130 0 -92 -3 -111 -19 -127 -22 -22 -57 -16 -66
12 -3 11 -6 67 -6 124 0 86 3 108 17 124 24 26 41 25 59 -3z"/>
<path d="M976 1153 c-3 -3 -6 -86 -6 -184 0 -142 3 -178 14 -182 8 -3 17 -3
20 0 3 4 6 58 6 122 l1 116 35 -95 c19 -52 40 -107 45 -121 7 -18 16 -25 27
-22 15 4 17 24 17 178 0 123 -4 178 -12 186 -18 18 -22 -1 -25 -126 l-3 -110
-40 113 c-36 103 -61 142 -79 125z"/>
<path d="M1252 1150 c-13 -9 -9 -359 4 -364 22 -9 29 11 29 84 l0 75 53 0 c47
-1 52 2 50 20 -2 16 -12 21 -53 25 l-50 5 -1 58 -2 57 53 0 c37 0 55 4 58 15
4 8 1 18 -6 22 -14 8 -124 11 -135 3z"/>
<path d="M1429 1141 c0 -9 -2 -83 -3 -166 -2 -158 5 -205 27 -187 9 8 12 56
11 184 -1 95 -2 176 -3 179 -3 13 -31 4 -32 -10z"/>
<path d="M1499 1148 c-6 -26 -1 -33 25 -38 l30 -5 -1 -155 c0 -147 5 -178 29
-164 4 3 8 77 8 165 l0 159 30 0 c25 0 30 4 30 23 0 22 -3 23 -75 22 -41 0
-76 -3 -76 -7z"/>
<path d="M1682 1142 c-10 -21 -8 -334 2 -350 5 -9 12 -10 20 -3 8 7 12 43 11
111 -1 55 2 100 6 100 4 0 17 -30 30 -67 39 -118 57 -153 74 -147 13 5 15 33
15 189 0 169 -1 183 -17 181 -16 -3 -18 -16 -20 -107 0 -57 -2 -108 -2 -114
-2 -14 -22 33 -56 132 -29 83 -48 106 -63 75z"/>
<path d="M1880 970 l0 -185 75 0 c71 0 75 1 75 22 0 21 -5 23 -55 23 l-55 0 0
59 0 59 45 -2 c50 -3 61 2 60 24 0 11 -14 16 -52 18 l-53 3 0 60 c0 40 4 59
13 60 6 0 31 1 55 1 38 0 43 2 40 21 -3 20 -9 22 -75 22 l-73 0 0 -185z"/>
<path d="M2080 1140 c-11 -11 -20 -23 -21 -27 0 -5 -2 -16 -4 -26 -7 -36 16
-83 65 -135 60 -64 66 -107 18 -125 -23 -8 -48 18 -48 49 0 17 -5 24 -20 24
-41 0 -10 -105 35 -116 59 -15 109 38 100 106 -2 14 -4 28 -4 33 -1 4 -26 34
-56 67 -57 62 -66 88 -39 115 22 21 36 15 54 -23 15 -32 50 -44 50 -18 0 77
-82 124 -130 76z"/>
<path d="M2260 1138 c-14 -16 -20 -35 -20 -69 0 -44 4 -53 55 -107 42 -46 55
-67 55 -91 0 -24 -6 -34 -22 -40 -33 -12 -47 -3 -54 35 -4 24 -12 34 -25 34
-16 0 -18 -6 -14 -34 6 -49 25 -75 61 -82 64 -12 101 35 89 114 -5 34 -16 52
-55 89 -56 52 -67 86 -38 115 25 25 41 19 53 -20 11 -37 45 -45 45 -12 0 29
-26 76 -45 84 -32 12 -64 6 -85 -16z"/>
<path d="M753 679 c11 -17 7 -24 -30 -60 -24 -22 -43 -44 -43 -49 0 -5 20 13
45 39 47 50 56 75 30 85 -12 4 -13 2 -2 -15z"/>
<path d="M684 674 c-19 -15 -19 -15 1 -6 11 5 27 12 35 15 13 5 13 6 -1 6 -8
1 -24 -6 -35 -15z"/>
<path d="M1014 660 c-11 -4 -29 -25 -39 -47 -10 -21 -26 -46 -36 -56 -10 -9
-16 -24 -13 -32 7 -17 20 -19 29 -5 4 6 2 9 -3 8 -6 -2 -10 2 -10 7 -1 6 5 10
12 9 6 -1 13 7 13 17 1 10 9 34 18 54 16 32 27 39 62 38 7 -1 10 3 7 8 -6 11
-12 11 -40 -1z"/>
<path d="M1336 625 c-3 -9 -6 -26 -5 -38 1 -14 4 -9 9 13 9 37 7 52 -4 25z"/>
<path d="M836 611 c-12 -13 -28 -19 -49 -17 -18 2 -21 1 -9 -1 20 -4 23 -9 18
-31 -6 -25 -5 -26 8 -9 11 14 15 15 19 5 2 -7 2 -3 1 9 -3 14 5 29 22 42 15
12 22 21 17 21 -5 0 -18 -9 -27 -19z"/>
<path d="M1376 614 c-22 -21 -20 -31 2 -11 9 8 33 17 52 20 l35 4 -37 1 c-22
1 -43 -4 -52 -14z"/>
<path d="M1015 600 c-3 -6 1 -7 9 -4 30 12 16 -24 -21 -57 -21 -17 -31 -29
-22 -26 9 3 21 1 27 -5 11 -11 70 -14 79 -4 3 3 -10 5 -29 4 -54 -2 -63 9 -33
39 27 28 33 63 11 63 -8 0 -18 -4 -21 -10z"/>
<path d="M464 584 c-10 -8 -13 -12 -6 -9 8 4 26 11 40 15 22 7 23 8 6 9 -11 1
-29 -6 -40 -15z"/>
<path d="M544 585 c21 -21 9 -45 -23 -46 -26 -2 -26 -2 -2 -6 32 -6 55 22 40
48 -5 11 -14 19 -20 19 -6 0 -4 -7 5 -15z"/>
<path d="M649 583 c-1 -10 -1 -21 0 -25 2 -15 -20 -8 -25 7 -10 26 -30 16 -41
-20 -14 -44 -6 -46 9 -3 l11 31 24 -27 c13 -15 23 -21 24 -14 0 7 3 25 5 41 3
15 2 27 -1 27 -3 0 -6 -8 -6 -17z"/>
<path d="M1148 593 c6 -2 18 -2 25 0 6 3 1 5 -13 5 -14 0 -19 -2 -12 -5z"/>
<path d="M1430 596 c0 -2 7 -6 15 -10 8 -3 15 -1 15 4 0 6 -7 10 -15 10 -8 0
-15 -2 -15 -4z"/>
<path d="M1617 585 c19 -8 33 -22 36 -37 4 -22 4 -22 6 -1 1 23 -32 53 -59 53
-8 -1 -1 -7 17 -15z"/>
<path d="M1790 589 c0 -5 5 -7 10 -4 19 12 23 -28 7 -59 l-17 -31 20 24 c23
26 26 51 8 69 -15 15 -28 15 -28 1z"/>
<path d="M1959 589 c28 -9 32 -14 29 -34 -3 -14 -1 -22 3 -19 5 3 9 14 9 24 0
21 -28 41 -57 39 -10 0 -3 -5 16 -10z"/>
<path d="M986 575 c-3 -9 -6 -22 -5 -28 0 -7 5 -1 10 12 5 13 8 26 5 28 -2 2
-6 -3 -10 -12z"/>
<path d="M1194 555 c1 -18 4 -31 9 -28 10 6 9 51 -1 57 -5 3 -8 -10 -8 -29z"/>
<path d="M1487 570 c10 -11 19 -20 21 -20 1 0 -2 9 -8 20 -6 11 -15 20 -20 20
-6 0 -2 -9 7 -20z"/>
<path d="M1678 564 c-14 -30 -1 -58 28 -61 15 -2 14 -1 -3 7 -27 11 -30 42 -7
64 8 9 11 16 4 16 -6 0 -16 -12 -22 -26z"/>
<path d="M1735 570 c15 -17 16 -24 7 -45 -14 -30 -7 -34 8 -5 13 25 5 56 -17
65 -14 5 -14 3 2 -15z"/>
<path d="M1257 573 c12 -2 27 -11 33 -19 10 -12 7 -14 -18 -14 -16 0 -35 -8
-43 -17 -11 -15 -11 -16 1 -5 8 6 26 12 40 12 15 0 30 3 33 7 12 11 -25 43
-47 42 -20 -2 -20 -2 1 -6z"/>
<path d="M1350 570 c0 -27 31 -61 53 -58 11 2 22 9 23 16 1 7 0 8 -3 2 -10
-21 -41 -9 -57 23 -8 17 -16 25 -16 17z"/>
<path d="M1858 558 c-10 -12 -18 -27 -18 -32 0 -6 7 0 16 12 12 18 19 20 29
12 17 -14 35 -4 34 18 -1 15 -2 15 -6 0 -2 -10 -9 -18 -15 -18 -5 0 -8 7 -4
15 8 23 -17 18 -36 -7z"/>
<path d="M728 540 c37 -22 38 -40 4 -55 -12 -5 -22 -13 -22 -18 0 -4 14 0 30
10 17 9 30 24 30 33 0 15 -47 50 -67 50 -4 0 7 -9 25 -20z"/>
<path d="M1171 544 c0 -11 3 -14 6 -6 3 7 2 16 -1 19 -3 4 -6 -2 -5 -13z"/>
<path d="M1321 548 c0 -9 -4 -25 -7 -35 -5 -17 -5 -17 6 0 6 10 9 25 7 35 -4
15 -5 15 -6 0z"/>
<path d="M1455 549 c-6 -8 -4 -10 5 -4 9 5 10 1 6 -16 -6 -21 -6 -22 5 -6 7
13 8 22 1 29 -6 6 -12 6 -17 -3z"/>
<path d="M1617 529 c-4 -16 -3 -18 9 -8 7 6 11 15 8 20 -8 13 -11 11 -17 -12z"/>
<path d="M1960 538 c0 -9 -6 -19 -12 -21 -10 -4 -10 -6 0 -6 14 -1 28 26 18
36 -3 4 -6 -1 -6 -9z"/>
<path d="M454 526 c-19 -14 -51 -93 -41 -102 2 -3 10 16 17 41 9 31 21 50 39
60 14 8 21 14 16 15 -6 0 -20 -6 -31 -14z"/>
<path d="M1490 529 c0 -5 5 -7 10 -4 6 3 10 8 10 11 0 2 -4 4 -10 4 -5 0 -10
-5 -10 -11z"/>
<path d="M781 514 c0 -11 3 -14 6 -6 3 7 2 16 -1 19 -3 4 -6 -2 -5 -13z"/>
<path d="M820 504 c-8 -19 -15 -24 -28 -19 -13 5 -14 4 -5 -6 15 -15 38 1 46
31 7 29 -2 24 -13 -6z"/>
<path d="M655 480 c3 -4 14 -10 25 -13 11 -3 18 -2 15 3 -3 4 -14 10 -25 13
-11 3 -18 2 -15 -3z"/>
<path d="M402 390 c0 -14 2 -19 5 -12 2 6 2 18 0 25 -3 6 -5 1 -5 -13z"/>
</g>
</svg>
